<mxfile host="app.diagrams.net" modified="2024-01-31T09:21:18.585Z" agent="Mozilla/5.0 (X11; Ubuntu; Linux x86_64; rv:122.0) Gecko/20100101 Firefox/122.0" etag="u2rBPoSdJFcgOaMHJ-Dj" version="23.0.2" type="device">
  <diagram name="Page-1" id="ezAXbMakzwpeWgLfgU5_">
    <mxGraphModel dx="867" dy="500" grid="1" gridSize="10" guides="1" tooltips="1" connect="1" arrows="1" fold="1" page="1" pageScale="1" pageWidth="827" pageHeight="1169" math="0" shadow="0">
      <root>
        <mxCell id="0" />
        <mxCell id="1" parent="0" />
        <mxCell id="3Zjer3AQSiBT5SiQqPdJ-1" value="" style="ellipse;whiteSpace=wrap;html=1;aspect=fixed;fillColor=#dae8fc;strokeColor=#6c8ebf;strokeWidth=2;gradientColor=#1a5fb4;" parent="1" vertex="1">
          <mxGeometry x="80" y="30" width="510" height="510" as="geometry" />
        </mxCell>
        <mxCell id="3Zjer3AQSiBT5SiQqPdJ-2" value="" style="ellipse;whiteSpace=wrap;html=1;aspect=fixed;fillColor=#f8cecc;strokeColor=#b85450;strokeWidth=2;gradientColor=#f66151;" parent="1" vertex="1">
          <mxGeometry x="140" y="140" width="400" height="400" as="geometry" />
        </mxCell>
        <mxCell id="3Zjer3AQSiBT5SiQqPdJ-3" value="" style="ellipse;whiteSpace=wrap;html=1;aspect=fixed;fillColor=#fff2cc;strokeColor=#d6b656;strokeWidth=2;gradientColor=#f9f06b;" parent="1" vertex="1">
          <mxGeometry x="200" y="257.5" width="282.5" height="282.5" as="geometry" />
        </mxCell>
        <mxCell id="3Zjer3AQSiBT5SiQqPdJ-5" value="&lt;font face=&quot;Open Sans&quot; style=&quot;font-size: 18px;&quot;&gt;&lt;b style=&quot;font-size: 18px;&quot;&gt;Apprentissage profond&lt;/b&gt; (angl. &lt;i style=&quot;font-size: 18px;&quot;&gt;Deep Learning – DL&lt;/i&gt;)&lt;br style=&quot;font-size: 18px;&quot;&gt;&lt;/font&gt;" style="text;html=1;strokeColor=none;fillColor=none;align=center;verticalAlign=middle;whiteSpace=wrap;rounded=0;fontSize=18;" parent="1" vertex="1">
          <mxGeometry x="221.25" y="383.75" width="237.5" height="30" as="geometry" />
        </mxCell>
        <mxCell id="3Zjer3AQSiBT5SiQqPdJ-6" value="&lt;font face=&quot;Open Sans&quot; style=&quot;font-size: 18px;&quot;&gt;&lt;b style=&quot;font-size: 18px;&quot;&gt;Apprentissage machine&lt;/b&gt; (angl. &lt;i&gt;Machine&lt;/i&gt;&lt;i style=&quot;font-size: 18px;&quot;&gt; Learning – ML&lt;/i&gt;)&lt;br style=&quot;font-size: 18px;&quot;&gt;&lt;/font&gt;" style="text;html=1;strokeColor=none;fillColor=none;align=center;verticalAlign=middle;whiteSpace=wrap;rounded=0;fontSize=18;" parent="1" vertex="1">
          <mxGeometry x="216.25" y="200" width="250" height="30" as="geometry" />
        </mxCell>
        <mxCell id="3Zjer3AQSiBT5SiQqPdJ-7" value="&lt;font face=&quot;Open Sans&quot; style=&quot;font-size: 18px;&quot;&gt;&lt;b style=&quot;font-size: 18px;&quot;&gt;Intelligence artificielle&lt;/b&gt; (angl. &lt;i&gt;Artificial Intelligence&lt;/i&gt;&lt;i style=&quot;font-size: 18px;&quot;&gt; – AI&lt;/i&gt;)&lt;br style=&quot;font-size: 18px;&quot;&gt;&lt;/font&gt;" style="text;html=1;strokeColor=none;fillColor=none;align=center;verticalAlign=middle;whiteSpace=wrap;rounded=0;fontSize=18;" parent="1" vertex="1">
          <mxGeometry x="209.06" y="80" width="251.87" height="30" as="geometry" />
        </mxCell>
        <mxCell id="3Zjer3AQSiBT5SiQqPdJ-10" value="&lt;p style=&quot;font-size: 20px;&quot; align=&quot;justify&quot;&gt;&lt;font style=&quot;font-size: 20px;&quot;&gt;ensemble des techniques inspiré par le domaine des neurosciences, permettant d&#39;apporter une forme d&#39;intelligence aux machines, afin de résoudre des problèmes plus ou moins complexes.&lt;br&gt;&lt;/font&gt;&lt;/p&gt;" style="text;html=1;spacing=5;spacingTop=-20;whiteSpace=wrap;overflow=hidden;rounded=0;fontFamily=Open Sans;fillColor=#f5f5f5;fontColor=#333333;strokeColor=none;" parent="1" vertex="1">
          <mxGeometry x="640" y="40" width="590" height="110" as="geometry" />
        </mxCell>
        <mxCell id="3Zjer3AQSiBT5SiQqPdJ-11" value="&lt;p align=&quot;justify&quot; style=&quot;font-size: 20px;&quot;&gt;ensemble des techniques inspiré par le domaine des statistiques, dans lequel l&#39;ordinateur formalise et apprend des règles à partir des données. Néanmoins, elles nécessitent souvent l&#39;intervention humaine quant à l&#39;analyse des données.&lt;br style=&quot;font-size: 20px;&quot;&gt;&lt;/p&gt;" style="text;html=1;strokeColor=none;fillColor=#f5f5f5;spacing=5;spacingTop=-20;whiteSpace=wrap;overflow=hidden;rounded=0;fontFamily=Open Sans;fontSize=20;fontColor=#333333;" parent="1" vertex="1">
          <mxGeometry x="640" y="190" width="590" height="120" as="geometry" />
        </mxCell>
        <mxCell id="3Zjer3AQSiBT5SiQqPdJ-12" value="&lt;p align=&quot;justify&quot; style=&quot;font-size: 20px;&quot;&gt;ensemble des techniques inspiré par le domaine des neurosciences, dans lesquels l&#39;ordinateur détermine par lui-même les schémas d&#39;apprentissage à partir des données. Dans ce schéma, l&#39;intervention humaine est plus limitée.&lt;br style=&quot;font-size: 20px;&quot;&gt;&lt;/p&gt;" style="text;html=1;strokeColor=none;fillColor=#f5f5f5;spacing=5;spacingTop=-20;whiteSpace=wrap;overflow=hidden;rounded=0;fontFamily=Open Sans;fontSize=20;fontColor=#333333;" parent="1" vertex="1">
          <mxGeometry x="640" y="353.75" width="590" height="116.25" as="geometry" />
        </mxCell>
        <mxCell id="3Zjer3AQSiBT5SiQqPdJ-13" value="" style="shape=waypoint;sketch=0;fillStyle=solid;size=6;pointerEvents=1;points=[];fillColor=none;resizable=0;rotatable=0;perimeter=centerPerimeter;snapToPoint=1;" parent="1" vertex="1">
          <mxGeometry x="458.75" y="90" width="20" height="20" as="geometry" />
        </mxCell>
        <mxCell id="3Zjer3AQSiBT5SiQqPdJ-14" value="" style="line;strokeWidth=2;html=1;strokeColor=#9a9996;" parent="1" vertex="1">
          <mxGeometry x="468.12" y="94.97" width="171.88" height="10" as="geometry" />
        </mxCell>
        <mxCell id="3Zjer3AQSiBT5SiQqPdJ-18" value="" style="shape=waypoint;sketch=0;fillStyle=solid;size=6;pointerEvents=1;points=[];fillColor=none;resizable=0;rotatable=0;perimeter=centerPerimeter;snapToPoint=1;" parent="1" vertex="1">
          <mxGeometry x="458.75" y="240" width="20" height="20" as="geometry" />
        </mxCell>
        <mxCell id="3Zjer3AQSiBT5SiQqPdJ-19" value="" style="line;strokeWidth=2;html=1;strokeColor=#9a9996;" parent="1" vertex="1">
          <mxGeometry x="466.25" y="245" width="173.75" height="10" as="geometry" />
        </mxCell>
        <mxCell id="3Zjer3AQSiBT5SiQqPdJ-24" value="" style="line;strokeWidth=2;html=1;strokeColor=#9a9996;" parent="1" vertex="1">
          <mxGeometry x="466.25" y="409" width="173.75" height="10" as="geometry" />
        </mxCell>
        <mxCell id="3Zjer3AQSiBT5SiQqPdJ-26" value="" style="shape=waypoint;sketch=0;fillStyle=solid;size=6;pointerEvents=1;points=[];fillColor=none;resizable=0;rotatable=0;perimeter=centerPerimeter;snapToPoint=1;" parent="1" vertex="1">
          <mxGeometry x="458.75" y="404" width="20" height="20" as="geometry" />
        </mxCell>
      </root>
    </mxGraphModel>
  </diagram>
</mxfile>
